<?xml version="1.0" encoding="utf-8"?>
<svg viewBox="0 0 400 90" width="360" height="90" xmlns="http://www.w3.org/2000/svg">
  <ellipse style="fill: none; stroke: rgb(0, 0, 0); stroke-width: 5px;" cx="13" cy="82" rx="10" ry="10" transform="matrix(1, 0, 0, 1, 0, -7.105427357601002e-15)"/>
  <polyline style="fill: rgb(216, 216, 216); stroke: rgb(0, 0, 0); stroke-width: 6px;" points="13 42 13 72" transform="matrix(1, 0, 0, 1, 0, -7.105427357601002e-15)"/>
  <text style="font-family: Arial, sans-serif; font-size: 38px; font-weight: 700; white-space: pre;" transform="matrix(1, 0, 0, 1, -9.412695071290358, 51.41269760448778)"><tspan x="26.15" y="18.035">E</tspan><tspan x="26.15" dy="1em">​</tspan></text>
  <path d="M 31.631 34.207 C 27.007 35.784 22.643 35.054 20.264 34.354 C 20.199 35.434 20.094 35.887 19.938 36.062 C 19.755 36.295 18.24 37.259 17.403 35.887 C 17.037 35.229 16.855 34.047 16.75 32.967 C 11.393 30.251 8.91 26.25 8.833 26.105 C 8.702 25.959 7.486 24.542 8.702 22.79 C 9.838 21.214 13.602 19.623 16.972 18.994 C 17.103 15.783 17.417 13.301 17.821 12.205 C 18.305 10.892 18.919 12.06 19.467 12.935 C 19.911 13.593 20.187 16.411 20.212 18.658 C 22.407 18.542 23.74 18.718 26.182 19.243 C 29.397 19.856 31.539 21.696 31.37 23.769 C 31.213 25.813 29.541 26.659 28.887 26.718 C 28.234 26.776 27.189 26.235 27.189 26.235 C 26.457 25.857 27.124 25.506 27.973 25.098 C 28.914 24.587 28.704 24.075 28.704 24.075 C 28.365 22.907 24.197 22.134 20.056 22.134 C 20.056 24.689 20.147 28.923 20.212 31.39 C 23.113 32.003 25.282 31.871 25.282 31.871 C 25.282 31.871 35.864 31.536 36.165 23.988 C 36.491 16.426 25.582 9.184 17.547 6.906 C 9.525 4.556 4.978 6.221 4.587 6.439 C 4.155 6.673 4.547 6.76 4.547 6.76 C 4.547 6.76 4.978 6.834 5.762 7.126 C 6.546 7.417 5.919 7.855 5.919 7.855 C 4.547 8.381 3.018 8.074 2.718 7.373 C 2.418 6.687 2.914 6.059 3.502 5.14 C 4.05 4.191 4.677 4.221 4.677 4.221 C 14.607 0.351 26.732 7.286 26.732 7.286 C 38.073 13.681 40.006 21.199 39.797 24.119 C 39.614 26.995 38.621 31.857 31.631 34.222 M 9.813 23.769 C 8.689 24.353 9.472 25.287 9.472 25.287 C 11.59 27.813 14.176 29.404 16.658 30.396 C 16.946 26.017 16.92 24.455 16.92 22.25 C 13.079 22.542 10.858 23.244 9.813 23.769" style="" transform="matrix(1, 0, 0, 1, 0, -7.105427357601002e-15)"/>
  <text style="fill: rgb(51, 51, 51); font-family: Arial, sans-serif; font-size: 25px; white-space: pre;" x="43" y="37" transform="matrix(1, 0, 0, 1, 0, -7.105427357601002e-15)">ance like no one is watching,</text>
  <text style="fill: rgb(51, 51, 51); font-family: Arial, sans-serif; font-size: 25px; white-space: pre;" x="43" y="69" transform="matrix(1, 0, 0, 1, 0, -7.105427357601002e-15)">ncrypt like every one is.</text>
</svg>