<?xml version="1.0" encoding="utf-8"?>
<svg viewBox="0 0 100 100.614" width="100" height="100.614" xmlns="http://www.w3.org/2000/svg">

  <g transform="rotate(45 50 50)">
    <line style="stroke: rgb(0, 0, 0); fill: none;" x1="0" y1="50" x2="100" y2="50"/>
    <line style="stroke: rgb(0, 0, 0); fill: none;" x1="50" y1="0" x2="50" y2="100"/>

    <line style="stroke: rgb(0, 0, 0); fill: none;" x1="90" y1="40" x2="90" y2="60"/>
    <line style="stroke: rgb(0, 0, 0); fill: none;" x1="40" y1="90" x2="60" y2="90"/>
    <line style="stroke: rgb(0, 0, 0); fill: none;" x1="10" y1="40" x2="10" y2="60"/>
    <line style="stroke: rgb(0, 0, 0); fill: none;" x1="40" y1="10" x2="60" y2="10"/>

    <polyline style="stroke: rgb(0, 0, 0); fill: none;" points="100 40 90 50 100 60"/>
    <polyline style="fill: none; stroke: rgb(0, 0, 0);" points="60 100 50 90 40 100"/>
    <polyline style="fill: none; stroke: rgb(0, 0, 0);" points="0 60 10 50 0 40"/>
    <polyline style="fill: none; stroke: rgb(0, 0, 0);" points="40 0 50 9 60 0"/>
  </g>
  <line style="stroke: rgb(0, 0, 0); fill: none;" x1="0" y1="50" x2="100" y2="50"/>
  <line style="stroke: rgb(0, 0, 0); fill: none;" x1="50" y1="0" x2="50" y2="100"/>

  <line style="stroke: rgb(0, 0, 0); fill: none;" x1="90" y1="40" x2="90" y2="60"/>
  <line style="stroke: rgb(0, 0, 0); fill: none;" x1="40" y1="90" x2="60" y2="90"/>
  <line style="stroke: rgb(0, 0, 0); fill: none;" x1="10" y1="40" x2="10" y2="60"/>
  <line style="stroke: rgb(0, 0, 0); fill: none;" x1="40" y1="10" x2="60" y2="10"/>

  <polyline style="stroke: rgb(0, 0, 0); fill: none;" points="100 40 90 50 100 60"/>
  <polyline style="fill: none; stroke: rgb(0, 0, 0);" points="60 100 50 90 40 100"/>
  <polyline style="fill: none; stroke: rgb(0, 0, 0);" points="0 60 10 50 0 40"/>
  <polyline style="fill: none; stroke: rgb(0, 0, 0);" points="40 0 50 9 60 0"/>
</svg>